/* XPM */
static char *_542e5378e524ab0f74b73e36cd9a167PvNjV7UbAqiZz9cZ[] = {
/* columns rows colors chars-per-pixel */
"64 64 88 1 ",
"  c #715F5F",
". c #7A5C5A",
"X c #7B5D5C",
"o c #7A615F",
"O c #7D625F",
"+ c #705F60",
"@ c #715F60",
"# c #626366",
"$ c #636366",
"% c #656365",
"& c #666365",
"* c #656467",
"= c #6B6062",
"- c #6B6263",
"; c #6F6262",
": c #6E6363",
"> c #6F6363",
", c #696364",
"< c #6A6364",
"1 c #6F6769",
"2 c #706263",
"3 c #706363",
"4 c #766160",
"5 c #746262",
"6 c #796260",
"7 c #7B6260",
"8 c #7D6263",
"9 c #7E6B6D",
"0 c #9F554E",
"q c #855955",
"w c #865955",
"e c #855B57",
"r c #865B57",
"t c #875B57",
"y c #885854",
"u c #895854",
"i c #8D5A55",
"p c #8F5A55",
"a c #815C5A",
"s c #8B5F59",
"d c #895F5A",
"f c #975751",
"g c #975852",
"h c #925E57",
"j c #995851",
"k c #9F5D53",
"l c #9F5E53",
"z c #A1554D",
"x c #A15D52",
"c c #A05D53",
"v c #82605C",
"b c #83625E",
"n c #8C625B",
"m c #8E625B",
"M c #89625C",
"N c #9C6157",
"B c #9F6157",
"V c #91625A",
"C c #92625A",
"Z c #93625A",
"A c #956159",
"S c #966159",
"D c #996158",
"F c #9B6158",
"G c #A26156",
"H c #A56155",
"J c #876262",
"K c #866263",
"L c #876263",
"P c #896263",
"I c #8A6263",
"U c #8F6261",
"Y c #8E6262",
"T c #876E6E",
"R c #906262",
"E c #916262",
"W c #936262",
"Q c #966261",
"! c #946262",
"~ c #9C6261",
"^ c #9E6261",
"/ c #947170",
"( c #9E7371",
") c #9F7371",
"_ c #A17777",
"` c #A87979",
"' c #AD7B79",
"] c #AD7B7A",
/* pixels */
"HHHHHHHHHHHHHHHHHGbxxxxxxxxxxxxxxxxxxxx,HHHHHHHHHHHHHHHHHHHHoGHH",
"HHHHHHHHHHHHHHHHHFaxxxxxxxxxxxxxxxxxxxk,HHHHHHHHHHHHHHHHHHHHOGHH",
"HHHHHHHHHHHHHHHHHGbxxxxxxxxxxxxxxxxxxxc,HHHHHHHHHHHHHHHHHHHHoGHH",
"HHHHHHHHHHHHHHHHHBaxxxxxxxxxxxxxxxxxxxx#HHHHHHHHHHHHHHHHHHHHoGHH",
"HHHHHHHHHHHHHHHHHBbxxxccxxxxxxccxxccxxx,HHHHHHHHHHHHHHHHHHHH7GHH",
"HHHHHHHHHHHHHHHHHkaxxcccxxxxxxccxcccxxk#HHHHHHHHHHHHHHHHHHHH7GHH",
"22222222;3;;;;;23;;3@3;;;>333@;;22;>;;@,2222222222222,222222<232",
"HHHHHHHHHHSpzzzzzzzzzzzzzzzzzzzjmxHHHHHHHHHHHHHHHHHHH&HHHHHHHHHH",
"HHHHHHHHHHSpzzzzzzzzzzzzzzzzzzzjMHHHHHHHHHHHHHHHHHHHH&HHHHHHHHHH",
"HHHHHHHHHHSpzzzzzzzzzzzzzzzzzzzjMHHHHHHHHHHHHHHHHHHHH&HHHHHHHHHH",
"HHHHHHHHHHSpzzzzzzzzzzzzzzzzzzzjMHHHHHHHHHHHHHHHHHHHH&HHHHHHHHHH",
"HHHHHHHHHHSpzzzzzzzzzzzzzzzzzzzjMHHHHHHHHHHHHHHHHHHHH&HHHHHHHHHH",
"HHHHHHHHHHSpzzzzzzzzzzz0zzzzzzzjMHHHHHHHHHHHHHHHHHHHH&HHHHHHHHHH",
"bbbbbbbbbb7Xttttttttttttttttdwwaobbbbbbbbbbbbbbbbbbbb&bbbbbbbbbb",
"HHHMQ^^^^^^^^^^^^^^^^^^^USHHHHHHGHHHHHHHHHHHHH>HHHHHHHHHHHHHHHHH",
"HHHMQ^^^^^^^^^^^^^^^^^^^USHHHHHHGHHHHHHHHHHHHH>HHHHHHHHHHHHHHHHH",
"HHHMQ^^^^^^^^^^^^^^^^^^^USGHHHHHHHHHHHHHHHHHHH:HHHHHHHHHHHHHHHHH",
"HHHMQ^^^^^^^^^^^^^^^^^^^ISHHHHHHHHHHHHHHHHHHHH:HHHHHHHHHHHHHHHHH",
"HHHMQ^^^^^^^^^^^^^^^^^^^USHHHHHHHHHHHHHHHHHHHH:HHHHHHHHHHHHHHHHH",
"HHHMQ^^^^^^^^^^^^^^^^^^^USHHHHHHHHHHHHHHHHHHHH:HHHHHHHHHHHHHHHHH",
"FFFbUQQQQQQQQQQQQQQQQQQQJmFFFFFFFFFFNNNFFFFFFF<BFFFSNNNFBNFFFFFF",
"wwwwwwwwwwwwwwwwwwT````````````````````#BBBHGNHNFGGGHNGNFGNG7www",
"yyyyyyyyyyyyyyyywrT]]]]]]]]]]]]]]]]]'']#HHHHHHHHHHHHHHHHHHHH7wwy",
"yyyyyyyyyyyyyyyywwT]]]]]]]]]]]]]]]]]]]]#HHHHHHHHHHHHHHHHHHHH7yyy",
"yyyyyyyyyyyyyyyyywT`]]]]]]]]]]]]]]]]]]]&HHHHHHHHHHHHHHHHHHHHowyy",
"yyyyyyyyyyyyyyyyywT]]]]]]]]]]]]]]]]]]]]*HHHHHHHHHHHHHHHHHHHH7yyy",
"yyyyyyyyyyyyyyyyywT]]]]]]]]]]]]]]]]]]]]*GHHHHHHGHHGGHHHHHHHGoqyy",
"  @@             @199999999999999999999*7777o777oo774Ooo7777=2o2",
"HHHHHHHHHHSVHHHHHHHHHHHHHHHHHHHNI^^^~~~~^^^^^^^^~~^^^&HHHHHHHHHH",
"HHHHHHHHHHSVHHHHHHHHHHHHHHHHHHHNI^^^~~^^^^^^^^^^~~^^^&HHHHHHHHHH",
"HHHHHHHHHHSVHHHHHHHHHHHHHHHHHHHNI^^^^^^^^^^^^^^^^^^^^&HHHHHHHHHH",
"HHHHHHHHHHSVHHHHHHHHHHHHHHHHHHHNI^^^^^^^^^^^^^^^^^^^^&HHHHHHHHHH",
"HHHHHHHHHHSVHHHHHHHHHHHHHHHHHHGNI~^^^^^^^^^^^^^^^^^^^%HHHHHHHHHH",
"HHHHHHHHHHSVHHHHHHHHHHHHHHHHHHHNI^^^^^^^^^^^^^^^^^^^^%HHHHHHHHHH",
"SSSVSSSVSVMJSSVSSSSVSSSVSShhSSSm8URRQRQRQRRQQQRQQRRQQ#FhShSShVSS",
"kkkdQ^^^~F~~F~~^~~~^~F~^Mf0l0z0zGzz0k00z00zz0l@cclxckkccckccxNkk",
"xxxdR^^^~^^^^^^^^^^^^^^^Ufzzzzzzzzzzzzzzzzzzzz4xccxxxxxxxxxxxxxx",
"xxxd~^^^^^^^^^^^^^^^^^^^Ugzzzzzzzzzzzzzzzzzzzz2xccxxxxxxxxxxxxxx",
"xxxdR^^^^^^^^^^^^^^^^^^^Ufzzzzzzzzzzzzzzzzzzzz@xcxxxxxxxxxxxxxxx",
"xxxs~^^^^^^^^^^^^^^^^^^^Pfzzzzzzzzzzzzzzzzzzzz3xxxxxxxxxxxxxxxxx",
"xxxdQ^^^^^^^^^^^^^^^^^^^mgzzzzzzzzzzzzzzzzzzzz@xxxccxxxcxxcccxxx",
"xxxdQ^^^^^^~~^^^^^^^~^^~Igz00xzzz00zzzzkz00zzk3xcccccccckxcccccc",
"RRRREERnUUUUUURRUP7VhhhhhhhShhhhhhhhhhh#SVVSSVVVSCVSSVVVSSVV4RRR",
"^^^^^^^^^^^^^^^^^~axxxxlxxxxlxlxxxxxxxx#HHHHHHHHHHHHHHHHHHHH7^^^",
"^^^^^^^^^^^^^^^^^Qaxxxxxxxxxxxxxxxxxxxx%HHHHHHHHHHHHHHHHHHHH7~^^",
"^^^^^^^^^^^^^^^^^~bxxxxxxxxxxxxxxxxxxxl&HHHHHHHHHHHHHHHHHHHH7^^^",
"^^^^^^^^^^^^^^^^^~bxxxxxxxxxxxxxxxxxxxx&HHHHHHHHHHHHHHHHHHHH7~^^",
"^^^^^^^^^^^^^^^^^~axxxxxxxxxxxxxxxxxxxx&HHHHHHHHHHHHHHHHHHHH7~^^",
"PPPKKPPKPKPPKPPPJJoMdddttVemmemenndnrnr&mMmmMmMmmmnnmmmnnnnn:LLP",
"HHHHHHHHHHhpzzzzzz00zzzzzzzzzzzgnHxHHHHHHHHHHHHHHHHHH&HHHHHHHHHH",
"HHHHHHHHHHSpzzzzzzzzzzzzzzzzzzzjMHHHHHHHHHHHHHHHHHHHH&HHHHHHHHHH",
"HHHHHHHHHHShzzzzzzzzzzzzzzzzzzzjMHHHHHHHHHHHHHHHHHHHH&HHHHHHHHHH",
"HHHHHHHHHHSpzzzzzzzzzzzzzzzzzzzjMHHHHHHHHHHHHHHHHHHHH&HHHHHHHHHH",
"HHHHHHHHHHSpzzzzzzzzzzzzzzzzzzzjMHHHHHHHHHHHHHHHHHHHH&HHHHHHHHHH",
"HHHGHHHHHHSpzzzzzzzzzzzzzzzzzzzjMHHHHHHHHHHHGHHGHHHHH&HGHHGHHGHH",
"GGGBGGGGGGVp000000000000z000000gbBHGNHGNHGNHGGGGGFGGG&GBGGGGGGGG",
"rwt.mNSFSFFSFFFSBSFFSFFSM/)))((_(())))))((_(((=wrwwrtttteeeeeeet",
"wyw.NHHHHHHHGHHHHHGHHHHHV_]]]]]]]]]]]]]]]]]]]]=yyyyyyyyyyyyyyyyy",
"yyy.NHHHHHHHHHHHHHHHHHHHV_]]]]]]]]]]]]]]]]]]]]=yyyyyyyyyyyyyyyyy",
"yyy.NHHHHHHHHHHHHHHHHHHHV_]]]]]]'']]]]]]]]]]]]=yyyyyyyyyyyyyyyyy",
"yyy.NHHHHHHHHHHHHHHHHHHHV_]]'']]]]]']]]]]]]]]];yyyyyyyyyyyyyyyyp",
"yyy.NHHHHHHHHHHHHHHHHHHHV_]]'']]]]]']]]]]]]]]]=yyyyyyyyyyyyyyyyy",
"ywy.FHHHHHHHHHHHHHHHHHHHV_]]]'']]]`]]]]]]]]]]]>wyyyyyyyyyywyywyy",
"bb7bbObO7Jb7bObObo;bObObObObOoJOOJbObOb%bObObOb7b77Kb7bObObo3Obb"
};
